<?xml version="1.0" standalone="no"?>
<!DOCTYPE svg PUBLIC "-//W3C//DTD SVG 20010904//EN"
 "http://www.w3.org/TR/2001/REC-SVG-20010904/DTD/svg10.dtd">
<svg version="1.0" xmlns="http://www.w3.org/2000/svg"
 width="800.000000pt" height="800.000000pt" viewBox="0 0 800.000000 800.000000"
 preserveAspectRatio="xMidYMid meet">
<metadata>
Created by potrace 1.14, written by Peter Selinger 2001-2017
</metadata>
<g transform="translate(0.000000,800.000000) scale(0.100000,-0.100000)"
fill="#000000" stroke="none">
<path d="M3675 7989 c-648 -60 -1225 -250 -1770 -582 -503 -307 -961 -757
-1272 -1247 -220 -348 -373 -688 -476 -1060 -52 -186 -47 -168 -76 -310 -31
-154 -36 -185 -46 -275 -3 -27 -8 -63 -10 -80 -13 -99 -19 -237 -19 -440 0
-274 10 -412 45 -625 96 -585 308 -1122 639 -1617 187 -279 460 -585 710 -793
29 -25 58 -50 64 -56 14 -13 182 -142 221 -170 17 -11 59 -40 95 -65 455 -313
1052 -545 1620 -629 241 -35 310 -39 655 -35 348 3 432 10 705 61 436 80 949
279 1330 515 354 220 720 537 975 844 144 173 317 419 395 560 18 33 42 72 52
88 11 15 16 27 13 27 -3 0 3 13 14 29 12 16 21 32 21 35 0 3 22 50 49 105 145
294 275 693 325 991 2 14 7 36 10 50 10 45 33 218 44 330 15 163 6 740 -13
835 -2 11 -7 43 -10 70 -3 28 -8 59 -10 70 -3 11 -7 38 -10 60 -3 22 -15 82
-26 135 -11 52 -23 107 -25 122 -3 14 -14 57 -25 95 -11 37 -22 77 -24 87 -6
26 -34 116 -45 141 -4 11 -18 49 -30 85 -256 762 -812 1485 -1505 1959 -408
279 -863 481 -1330 591 -157 37 -318 67 -430 80 -49 5 -108 12 -130 15 -70 10
-606 13 -700 4z"/>
</g>
</svg>
